<svg width="15" height="16" viewBox="0 0 15 16" fill="none" xmlns="http://www.w3.org/2000/svg">
<path d="M8.18965 2.43966C8.18965 2.05877 7.88089 1.75 7.5 1.75C7.11911 1.75 6.81034 2.05877 6.81034 2.43966V7.31034H1.93966C1.55877 7.31034 1.25 7.61911 1.25 8C1.25 8.38089 1.55877 8.68965 1.93966 8.68965H6.81034V13.5603C6.81034 13.9412 7.11911 14.25 7.5 14.25C7.88089 14.25 8.18965 13.9412 8.18965 13.5603V8.68965H13.0603C13.4412 8.68965 13.75 8.38089 13.75 8C13.75 7.61911 13.4412 7.31034 13.0603 7.31034H8.18965V2.43966Z" fill="white"/>
</svg>
