<svg width="25" height="25" viewBox="0 0 25 25" fill="none" xmlns="http://www.w3.org/2000/svg">
<path d="M4.16671 4.16659H7.29171L9.37504 2.08325H15.625L17.7084 4.16659H20.8334C21.3859 4.16659 21.9158 4.38608 22.3065 4.77678C22.6972 5.16748 22.9167 5.69738 22.9167 6.24992V18.7499C22.9167 19.3025 22.6972 19.8324 22.3065 20.2231C21.9158 20.6138 21.3859 20.8333 20.8334 20.8333H4.16671C3.61417 20.8333 3.08427 20.6138 2.69357 20.2231C2.30287 19.8324 2.08337 19.3025 2.08337 18.7499V6.24992C2.08337 5.69738 2.30287 5.16748 2.69357 4.77678C3.08427 4.38608 3.61417 4.16659 4.16671 4.16659ZM12.5 7.29158C11.1187 7.29158 9.79395 7.84032 8.81719 8.81707C7.84044 9.79382 7.29171 11.1186 7.29171 12.4999C7.29171 13.8813 7.84044 15.206 8.81719 16.1828C9.79395 17.1595 11.1187 17.7083 12.5 17.7083C13.8814 17.7083 15.2061 17.1595 16.1829 16.1828C17.1596 15.206 17.7084 13.8813 17.7084 12.4999C17.7084 11.1186 17.1596 9.79382 16.1829 8.81707C15.2061 7.84032 13.8814 7.29158 12.5 7.29158ZM12.5 9.37492C13.3288 9.37492 14.1237 9.70416 14.7098 10.2902C15.2958 10.8763 15.625 11.6711 15.625 12.4999C15.625 13.3287 15.2958 14.1236 14.7098 14.7096C14.1237 15.2957 13.3288 15.6249 12.5 15.6249C11.6712 15.6249 10.8764 15.2957 10.2903 14.7096C9.70428 14.1236 9.37504 13.3287 9.37504 12.4999C9.37504 11.6711 9.70428 10.8763 10.2903 10.2902C10.8764 9.70416 11.6712 9.37492 12.5 9.37492Z" fill="black"/>
</svg>
