<svg width="24" height="25" viewBox="0 0 24 25" fill="none" xmlns="http://www.w3.org/2000/svg">
<path d="M21.72 12.0521L2.72051 2.54957C2.62072 2.49966 2.51096 2.48968 2.39121 2.50964C2.12179 2.56953 1.95215 2.83903 2.01202 3.10854L3.7084 10.9342C3.80819 11.3634 4.1774 11.6828 4.62644 11.7127L14.8746 12.3915C14.9245 12.3915 14.9644 12.4314 14.9644 12.4813C14.9644 12.5412 14.9245 12.5811 14.8746 12.5911L4.62644 13.2799C4.18738 13.3098 3.80819 13.6292 3.71838 14.0684L2.022 21.894C2.00204 22.0038 2.01202 22.1236 2.06191 22.2234C2.18166 22.473 2.48102 22.5728 2.73049 22.443L21.73 12.9405C21.8298 12.8906 21.9096 12.8107 21.9495 12.7209C22.0692 12.4713 21.9695 12.1719 21.72 12.0521Z" fill="#AEAEB2"/>
</svg>
