<svg width="24" height="24" viewBox="0 0 24 24" fill="none" xmlns="http://www.w3.org/2000/svg">
    <path d="M18 9.49998C18 13 14.4 15.9 10 15.9C7.84973 17.8352 5.69946 18.3834 4.65387 18.5386C4.42649 18.5724 4.28999 18.2869 4.42905 18.1038C4.79608 17.6207 5.36468 16.7439 6 15.3C3.6 14.2 2 11.9 2 9.49998C2 5.99998 5.6 3.09998 10 3.09998C14.4 3.09998 18 5.99998 18 9.49998Z" fill="#212124"/>
    <path d="M18.8508 6.71551C18.6403 6.58709 18.4031 6.82769 18.4997 7.05453C18.8225 7.81246 19.0001 8.63342 19.0001 9.49993C19.0001 13.6113 15.0032 16.6972 10.4528 16.8903C10.4079 16.8922 10.3646 16.9089 10.3302 16.9378L10.2813 16.9787C10.138 17.0978 10.1641 17.3269 10.3363 17.3984C11.4365 17.8546 12.6692 18.0999 14 18.0999C16.1686 20.0516 18.3371 20.6447 19.3726 20.8236C19.596 20.8622 19.7339 20.5929 19.5989 20.4107C19.2331 19.917 18.6517 19.0217 18 17.5999C20.4 16.4999 22 14.1999 22 11.7999C22 9.70674 20.7498 7.87408 18.8508 6.71551Z" fill="#212124"/>
</svg>
