<svg width="24" height="24" viewBox="0 0 24 24" fill="none" xmlns="http://www.w3.org/2000/svg">
    <path fill-rule="evenodd" clip-rule="evenodd" d="M1.2002 9.49993C1.2002 5.40214 5.33243 2.29993 10.0002 2.29993C12.6175 2.29993 15.0664 3.27526 16.7129 4.85455C20.0862 5.74216 22.8002 8.35503 22.8002 11.7002C22.8002 14.1967 21.3036 16.5332 19.0558 17.8514C19.4538 18.6438 19.8066 19.2127 20.071 19.5957C20.2387 19.8384 20.371 20.0067 20.457 20.11L20.5694 20.238C20.7988 20.4703 20.8642 20.8189 20.7341 21.1187C20.6034 21.4199 20.3018 21.6107 19.9736 21.5998L19.9703 21.5997L19.7929 21.5874C19.6888 21.5779 19.5426 21.5614 19.3604 21.5327C18.9962 21.4755 18.4865 21.3696 17.8799 21.1742C16.7238 20.8017 15.2143 20.103 13.6939 18.7962C12.0073 18.7513 10.4574 18.3352 9.11617 17.5994C8.01209 18.3359 6.96232 18.7715 6.10507 19.0287C5.49591 19.2114 4.98392 19.3041 4.61784 19.3512C4.4347 19.3748 4.2877 19.3869 4.18287 19.3932L4.0002 19.3999C3.66805 19.3999 3.37046 19.1947 3.25242 18.8842C3.13542 18.5765 3.21896 18.2288 3.46221 18.0078C3.46391 18.0062 3.46832 18.002 3.47533 17.995C3.49107 17.9792 3.51993 17.9495 3.56053 17.9039C3.64171 17.8127 3.77007 17.658 3.93456 17.4255C4.19705 17.0544 4.55203 16.4843 4.95419 15.6567C2.70112 14.3395 1.2002 11.9999 1.2002 9.49993ZM10.9008 16.6613C11.8347 17.0108 12.8745 17.2002 14.0002 17.2002C14.1979 17.2002 14.3885 17.2734 14.5354 17.4056C15.8517 18.5903 17.1619 19.2348 18.1742 19.5856C17.8987 19.1117 17.5931 18.5321 17.273 17.8336C17.0889 17.4319 17.2653 16.9571 17.6669 16.773C19.8232 15.7847 21.2002 13.745 21.2002 11.7002C21.2002 9.92998 20.1143 8.29423 18.3645 7.25412C18.6463 7.95556 18.8002 8.70921 18.8002 9.49993C18.8002 13.3319 15.1866 16.2933 10.9008 16.6613ZM5.81855 17.4423C6.09846 16.9588 6.40839 16.3588 6.73255 15.6221C6.90857 15.222 6.73094 14.7548 6.33362 14.5726C4.17731 13.5843 2.80029 11.5447 2.80029 9.4999C2.80029 6.59769 5.86806 3.8999 10.0003 3.8999C14.1325 3.8999 17.2003 6.59769 17.2003 9.4999C17.2003 12.4021 14.1325 15.0999 10.0003 15.0999C9.80266 15.0999 9.61202 15.1731 9.46512 15.3053C8.14316 16.495 6.82863 17.1166 5.81855 17.4423Z" fill="#212124"/>
</svg>
