<svg width="24" height="25" viewBox="0 0 24 25" fill="none" xmlns="http://www.w3.org/2000/svg">
<path fill-rule="evenodd" clip-rule="evenodd" d="M11.9999 2.5C12.4712 2.5 12.8533 2.88206 12.8533 3.35335V11.6467H21.1467C21.6179 11.6467 22 12.0288 22 12.5001C22 12.9713 21.6179 13.3534 21.1467 13.3534H12.8533V21.6466C12.8533 22.1179 12.4712 22.5 11.9999 22.5C11.5287 22.5 11.1466 22.1179 11.1466 21.6466V13.3534H2.85334C2.38205 13.3534 2 12.9713 2 12.5001C2 12.0288 2.38205 11.6467 2.85334 11.6467H11.1466V3.35335C11.1466 2.88206 11.5287 2.5 11.9999 2.5Z" fill="#212124"/>
</svg>
