<svg width="20" height="20" viewBox="0 0 20 20" fill="none" xmlns="http://www.w3.org/2000/svg">
<path d="M5.16663 11.667C5.16663 11.2988 5.4651 11.0003 5.83329 11.0003H9.99996C10.3681 11.0003 10.6666 11.2988 10.6666 11.667C10.6666 12.0351 10.3681 12.3336 9.99996 12.3336H5.83329C5.4651 12.3336 5.16663 12.0351 5.16663 11.667Z" fill="#212124"/>
<path d="M5.83329 13.5003C5.4651 13.5003 5.16663 13.7988 5.16663 14.167C5.16663 14.5351 5.4651 14.8336 5.83329 14.8336H9.99996C10.3681 14.8336 10.6666 14.5351 10.6666 14.167C10.6666 13.7988 10.3681 13.5003 9.99996 13.5003H5.83329Z" fill="#212124"/>
<path fill-rule="evenodd" clip-rule="evenodd" d="M4.00008 1.66699C2.71142 1.66699 1.66675 2.71166 1.66675 4.00033V16.0003C1.66675 17.289 2.71142 18.3337 4.00008 18.3337H16C17.2887 18.3337 18.3333 17.289 18.3333 16.0003V4.00033C18.3333 2.71166 17.2887 1.66699 16 1.66699L4.00008 1.66699ZM3.00008 4.00033C3.00008 3.44804 3.4478 3.00033 4.00008 3.00033L6.83329 3.00033V6.50037C6.83329 6.86856 7.13177 7.16703 7.49996 7.16703H12.5C12.8681 7.16703 13.1666 6.86856 13.1666 6.50037V3.00033H16C16.5523 3.00033 17 3.44804 17 4.00033V16.0003C17 16.5526 16.5523 17.0003 16 17.0003H4.00008C3.4478 17.0003 3.00008 16.5526 3.00008 16.0003V4.00033ZM11.8333 3.00033H8.16663V5.8337H11.8333V3.00033Z" fill="#212124"/>
</svg>
