<svg width="24" height="24" viewBox="0 0 24 24" fill="none" xmlns="http://www.w3.org/2000/svg">
    <path d="M11.4687 2.40202C11.7718 2.13259 12.2286 2.13259 12.5317 2.40202L21.5317 10.402C21.7025 10.5538 21.8002 10.7714 21.8002 11V21C21.8002 21.4418 21.442 21.7999 21.0002 21.7999H15.0002C14.5584 21.7999 14.2002 21.4418 14.2002 21V16C14.2002 14.7418 13.2584 13.8 12.0002 13.8C10.742 13.8 9.8002 14.7418 9.8002 16V20.9999C9.8002 21.4417 9.44202 21.7999 9.0002 21.7999H3.0002C2.55837 21.7999 2.2002 21.4418 2.2002 21V11C2.2002 10.7714 2.29791 10.5538 2.4687 10.402L11.4687 2.40202Z" fill="#212124"/>
</svg>
