<svg width="22" height="14" viewBox="0 0 22 14" fill="none" xmlns="http://www.w3.org/2000/svg">
    <path d="M1.41137 0.600056C1.30536 0.598556 1.20011 0.618141 1.10174 0.657672C1.00336 0.697203 0.913824 0.755892 0.838328 0.830328C0.762832 0.904763 0.702883 0.993461 0.661965 1.09127C0.621047 1.18907 0.599976 1.29404 0.599976 1.40006C0.599976 1.50608 0.621047 1.61104 0.661965 1.70884C0.702883 1.80665 0.762832 1.89535 0.838328 1.96978C0.913824 2.04422 1.00336 2.10291 1.10174 2.14244C1.20011 2.18197 1.30536 2.20155 1.41137 2.20006H20.6114C20.7174 2.20155 20.8226 2.18197 20.921 2.14244C21.0194 2.10291 21.1089 2.04422 21.1844 1.96978C21.2599 1.89535 21.3199 1.80665 21.3608 1.70884C21.4017 1.61104 21.4228 1.50608 21.4228 1.40006C21.4228 1.29404 21.4017 1.18907 21.3608 1.09127C21.3199 0.993461 21.2599 0.904763 21.1844 0.830328C21.1089 0.755892 21.0194 0.697203 20.921 0.657672C20.8226 0.618141 20.7174 0.598556 20.6114 0.600056H1.41137ZM1.41137 6.20006C1.30536 6.19856 1.20011 6.21814 1.10174 6.25767C1.00336 6.2972 0.913824 6.35589 0.838328 6.43033C0.762832 6.50476 0.702883 6.59346 0.661965 6.69127C0.621047 6.78907 0.599976 6.89404 0.599976 7.00006C0.599976 7.10608 0.621047 7.21104 0.661965 7.30885C0.702883 7.40665 0.762832 7.49535 0.838328 7.56978C0.913824 7.64422 1.00336 7.70291 1.10174 7.74244C1.20011 7.78197 1.30536 7.80156 1.41137 7.80006H20.6114C20.7174 7.80156 20.8226 7.78197 20.921 7.74244C21.0194 7.70291 21.1089 7.64422 21.1844 7.56978C21.2599 7.49535 21.3199 7.40665 21.3608 7.30885C21.4017 7.21104 21.4228 7.10608 21.4228 7.00006C21.4228 6.89404 21.4017 6.78907 21.3608 6.69127C21.3199 6.59346 21.2599 6.50476 21.1844 6.43033C21.1089 6.35589 21.0194 6.2972 20.921 6.25767C20.8226 6.21814 20.7174 6.19856 20.6114 6.20006H1.41137ZM1.41137 11.8001C1.30536 11.7986 1.20011 11.8181 1.10174 11.8577C1.00336 11.8972 0.913824 11.9559 0.838328 12.0303C0.762832 12.1048 0.702883 12.1935 0.661965 12.2913C0.621047 12.3891 0.599976 12.494 0.599976 12.6001C0.599976 12.7061 0.621047 12.811 0.661965 12.9088C0.702883 13.0067 0.762832 13.0953 0.838328 13.1698C0.913824 13.2442 1.00336 13.3029 1.10174 13.3424C1.20011 13.382 1.30536 13.4016 1.41137 13.4001H20.6114C20.7174 13.4016 20.8226 13.382 20.921 13.3424C21.0194 13.3029 21.1089 13.2442 21.1844 13.1698C21.2599 13.0953 21.3199 13.0067 21.3608 12.9088C21.4017 12.811 21.4228 12.7061 21.4228 12.6001C21.4228 12.494 21.4017 12.3891 21.3608 12.2913C21.3199 12.1935 21.2599 12.1048 21.1844 12.0303C21.1089 11.9559 21.0194 11.8972 20.921 11.8577C20.8226 11.8181 20.7174 11.7986 20.6114 11.8001H1.41137Z" fill="black"/>
</svg>
