<svg width="4" height="20" viewBox="0 0 4 20" fill="none" xmlns="http://www.w3.org/2000/svg">
    <path fill-rule="evenodd" clip-rule="evenodd" d="M3.80001 1.99995C3.80001 2.99406 2.99412 3.79995 2.00001 3.79995C1.0059 3.79995 0.200012 2.99406 0.200012 1.99995C0.200012 1.00584 1.0059 0.199951 2.00001 0.199951C2.99412 0.199951 3.80001 1.00584 3.80001 1.99995ZM3.80001 9.99995C3.80001 10.9941 2.99412 11.8 2.00001 11.8C1.0059 11.8 0.200012 10.9941 0.200012 9.99995C0.200012 9.00584 1.0059 8.19995 2.00001 8.19995C2.99412 8.19995 3.80001 9.00584 3.80001 9.99995ZM2.00001 19.8C2.99412 19.8 3.80001 18.994 3.80001 18C3.80001 17.0059 2.99412 16.2 2.00001 16.2C1.0059 16.2 0.200012 17.0059 0.200012 18C0.200012 18.994 1.0059 19.8 2.00001 19.8Z" fill="white"/>
</svg>
