<svg width="24" height="24" viewBox="0 0 24 24" fill="none" xmlns="http://www.w3.org/2000/svg">
	<path fill-rule="evenodd" clip-rule="evenodd" d="M18.0004 2.8999C18.3318 2.8999 18.6004 3.16853 18.6004 3.4999V18.0857C18.6004 18.8321 18.8969 19.5479 19.4247 20.0756C19.5332 20.1842 19.6004 20.3342 19.6004 20.4999C19.6004 20.8313 19.3318 21.0999 19.0004 21.0999H4.00039C2.56445 21.0999 1.40039 19.9358 1.40039 18.4999V3.4999C1.40039 3.16853 1.66902 2.8999 2.00039 2.8999H18.0004ZM6.0002 8.3999C5.66883 8.3999 5.4002 8.66853 5.4002 8.9999C5.4002 9.33127 5.66883 9.5999 6.0002 9.5999H13.0002C13.3316 9.5999 13.6002 9.33127 13.6002 8.9999C13.6002 8.66853 13.3316 8.3999 13.0002 8.3999H6.0002ZM6.0002 12.3999C5.66883 12.3999 5.4002 12.6685 5.4002 12.9999C5.4002 13.3313 5.66883 13.5999 6.0002 13.5999H10.0002C10.3316 13.5999 10.6002 13.3313 10.6002 12.9999C10.6002 12.6685 10.3316 12.3999 10.0002 12.3999H6.0002Z" fill="#212124"/>
	<path d="M20.4003 7.8999C20.0689 7.8999 19.8003 8.16851 19.8003 8.49988V18.3001C19.8003 19.1837 20.4166 19.9001 21.3003 19.9001C22.1839 19.9001 22.6003 19.1837 22.6003 18.3001V8.49988C22.6003 8.16851 22.3317 7.8999 22.0003 7.8999H20.4003Z" fill="#212124"/>
</svg>
