<svg width="18" height="20" viewBox="0 0 18 20" fill="none" xmlns="http://www.w3.org/2000/svg">
    <path fill-rule="evenodd" clip-rule="evenodd" d="M9.0002 0.199951C5.24837 0.199951 2.2002 3.24812 2.2002 6.99995V11.7577L0.334555 14.5562C0.246946 14.6876 0.200195 14.842 0.200195 15V16C0.200195 16.4418 0.558368 16.8 1.0002 16.8H6.20639L6.20088 16.933C6.20042 16.944 6.2002 16.955 6.2002 16.9661C6.2002 18.5138 7.44574 19.8 9.0002 19.8C10.5546 19.8 11.8002 18.5138 11.8002 16.9661V16.8H17.0002C17.442 16.8 17.8002 16.4418 17.8002 16V15C17.8002 14.842 17.7534 14.6876 17.6658 14.5562L15.8002 11.7577V6.99995C15.8002 3.24812 12.752 0.199951 9.0002 0.199951ZM10.2002 16.8H7.80776L7.80028 16.9806C7.80802 17.6632 8.3592 18.2 9.0002 18.2C9.64574 18.2 10.2002 17.6556 10.2002 16.9661V16.8ZM16.172 15.2L14.3346 12.4437C14.2469 12.3123 14.2002 12.1579 14.2002 12V6.99995C14.2002 4.13178 11.8684 1.79995 9.0002 1.79995C6.13202 1.79995 3.8002 4.13178 3.8002 6.99995V12C3.8002 12.1579 3.75344 12.3123 3.66584 12.4437L1.82834 15.2H16.172Z" fill="#212124"/>
</svg>
