<svg width="20" height="20" viewBox="0 0 20 20" fill="none" xmlns="http://www.w3.org/2000/svg">
<path fill-rule="evenodd" clip-rule="evenodd" d="M9.99996 1.04199C7.79082 1.04199 5.99996 2.83285 5.99996 5.04199V5.06991H5.06064C4.22945 5.06991 3.52531 5.68233 3.41007 6.50549L1.93229 16.2277C1.79193 17.2303 2.57049 18.1255 3.58286 18.1255H16.417C17.4294 18.1255 18.208 17.2303 18.0676 16.2277L16.5898 6.50549C16.4746 5.68233 15.7704 5.06991 14.9392 5.06991H14V5.04199C14 2.83285 12.2091 1.04199 9.99996 1.04199ZM12.6666 6.40324V7.54199C12.6666 7.91018 12.9651 8.20865 13.3333 8.20865C13.7015 8.20865 14 7.91018 14 7.54199V6.40324H14.9392C15.1055 6.40324 15.2463 6.52572 15.2694 6.69036L16.7471 16.4126C16.7752 16.6131 16.6195 16.7921 16.417 16.7921H3.58286C3.38039 16.7921 3.22468 16.6131 3.25275 16.4126L4.73053 6.69035C4.75357 6.52572 4.8944 6.40324 5.06064 6.40324H5.99996V7.54199C5.99996 7.91018 6.29844 8.20865 6.66663 8.20865C7.03482 8.20865 7.33329 7.91018 7.33329 7.54199V6.40324H12.6666ZM12.6666 5.06991V5.04199C12.6666 3.56923 11.4727 2.37533 9.99996 2.37533C8.5272 2.37533 7.33329 3.56923 7.33329 5.04199V5.06991H12.6666Z" fill="#212124"/>
</svg>
