<svg width="18" height="18" viewBox="0 0 18 18" fill="none" xmlns="http://www.w3.org/2000/svg">
<path fill-rule="evenodd" clip-rule="evenodd" d="M7.87515 1.64996C4.43717 1.64996 1.65015 4.43699 1.65015 7.87496C1.65015 11.3129 4.43717 14.1 7.87515 14.1C9.37806 14.1 10.7566 13.5674 11.8323 12.6806L15.3259 16.1742C15.5602 16.4085 15.9401 16.4085 16.1744 16.1742C16.4087 15.9399 16.4087 15.56 16.1744 15.3257L12.6808 11.8321C13.5675 10.7564 14.1001 9.37788 14.1001 7.87496C14.1001 4.43699 11.3131 1.64996 7.87515 1.64996ZM2.85015 7.87496C2.85015 5.09973 5.09992 2.84996 7.87515 2.84996C10.6504 2.84996 12.9001 5.09973 12.9001 7.87496C12.9001 10.6502 10.6504 12.9 7.87515 12.9C5.09992 12.9 2.85015 10.6502 2.85015 7.87496Z" fill="#212124"/>
</svg>
