<svg width="24" height="24" viewBox="0 0 24 24" fill="none" xmlns="http://www.w3.org/2000/svg">
<path fill-rule="evenodd" clip-rule="evenodd" d="M9.10057 3.2695C9.1991 2.79051 9.61019 2.40039 10.1511 2.40039H13.8538C14.3849 2.40039 14.7996 2.77931 14.9025 3.24625C14.9058 3.26101 14.9085 3.27589 14.9106 3.29086L15.1208 4.76767C15.1682 5.10075 15.4094 5.42466 15.7857 5.64176C16.1367 5.84428 16.51 5.88525 16.8151 5.76579L18.2942 5.18669C18.3015 5.18384 18.3088 5.18115 18.3161 5.17859C18.7842 5.01606 19.3121 5.1792 19.5908 5.6195L19.5991 5.63312L21.4472 8.73265C21.7456 9.21364 21.5805 9.79775 21.2006 10.0999L21.1896 10.1087L19.9376 11.0574C19.6822 11.251 19.5295 11.5895 19.5295 12.0004C19.5295 12.3978 19.6821 12.7347 19.926 12.9196L21.1895 13.8772C21.2015 13.8863 21.2132 13.8959 21.2245 13.9058C21.5629 14.2049 21.7543 14.7587 21.4471 15.2532L19.5991 18.3527L19.5908 18.3663C19.3121 18.8066 18.7842 18.9697 18.3161 18.8072C18.3088 18.8046 18.3015 18.8019 18.2942 18.7991L16.8194 18.2217C16.5124 18.1015 16.1305 18.1437 15.7737 18.3477C15.4049 18.5584 15.1692 18.8779 15.1215 19.213L14.9106 20.6949C14.9089 20.7071 14.9068 20.7192 14.9043 20.7313C14.8058 21.2103 14.3947 21.6004 13.8538 21.6004H10.1511C9.61997 21.6004 9.20524 21.2215 9.10233 20.7545C9.09907 20.7398 9.09638 20.7249 9.09425 20.7099L8.88408 19.2331C8.83668 18.9 8.59548 18.5761 8.21919 18.359C7.86819 18.1565 7.4949 18.1155 7.18977 18.235L5.71066 18.8141C5.7034 18.8169 5.69609 18.8196 5.68873 18.8222C5.22067 18.9847 4.69279 18.8216 4.4141 18.3813L4.40574 18.3677L2.55772 15.2682C2.26921 14.8037 2.39697 14.2461 2.76496 13.9208C2.77624 13.9109 2.7879 13.9013 2.7999 13.8922L4.05186 12.9433C4.30718 12.7498 4.45993 12.4113 4.45993 12.0004C4.45993 11.5805 4.31088 11.2421 4.06595 11.0564L2.81533 10.1086C2.80333 10.0995 2.79167 10.0899 2.78039 10.08C2.44198 9.78084 2.25056 9.22707 2.55773 8.73255L4.40574 5.63312L4.4141 5.6195C4.69279 5.1792 5.22067 5.01606 5.68873 5.17859C5.69609 5.18115 5.7034 5.18384 5.71066 5.18669L7.18085 5.76229C7.48828 5.88266 7.87134 5.84061 8.24058 5.63696C8.60269 5.43724 8.83542 5.12458 8.88171 4.79937L9.09425 3.30586C9.09598 3.29368 9.09809 3.28155 9.10057 3.2695ZM10.2644 3.60039L10.0697 4.96844C9.95894 5.74699 9.43425 6.34903 8.82012 6.68774C8.22317 7.01698 7.46337 7.1616 6.74336 6.8797L5.37825 6.34524L3.65343 9.23806L4.79079 10.1001C5.41908 10.5763 5.65993 11.3246 5.65993 12.0004C5.65993 12.6917 5.39982 13.4274 4.7767 13.8997L3.64863 14.7547L5.37825 17.6555L6.75228 17.1176C7.46596 16.8382 8.2222 16.9753 8.81889 17.3196C9.42492 17.6693 9.95973 18.2743 10.0721 19.064L10.2623 20.4004H13.7404L13.9335 19.0439C14.0449 18.2609 14.5664 17.6555 15.1782 17.3058C15.7762 16.964 16.5397 16.8235 17.2569 17.1043L18.6266 17.6405L20.3514 14.7477L19.2012 13.876C18.5889 13.4119 18.3295 12.6774 18.3295 12.0004C18.3295 11.3091 18.5896 10.5734 19.2127 10.1011L20.3514 9.23806L18.6266 6.34524L17.2526 6.8832C16.5389 7.16262 15.7827 7.02543 15.186 6.68117C14.5799 6.33151 14.0451 5.72645 13.9327 4.93674L13.7426 3.60039H10.2644ZM3.57674 9.36628L3.57909 9.36245L3.57674 9.36628Z" fill="black"/>
<path fill-rule="evenodd" clip-rule="evenodd" d="M8.3559 12.0004C8.3559 9.9878 9.98743 8.35627 12 8.35627C14.0126 8.35627 15.6441 9.9878 15.6441 12.0004C15.6441 14.013 14.0126 15.6445 12 15.6445C9.98743 15.6445 8.3559 14.013 8.3559 12.0004ZM12 9.55627C10.6502 9.55627 9.5559 10.6505 9.5559 12.0004C9.5559 13.3502 10.6502 14.4445 12 14.4445C13.3499 14.4445 14.4441 13.3502 14.4441 12.0004C14.4441 10.6505 13.3499 9.55627 12 9.55627Z" fill="black"/>
</svg>
