<svg width="15" height="20" viewBox="0 0 15 20" fill="none" xmlns="http://www.w3.org/2000/svg">
    <path fill-rule="evenodd" clip-rule="evenodd" d="M2.04545 7.64482C1.6689 7.64482 1.36364 7.99055 1.36364 8.41702V17.6834C1.36364 18.1098 1.6689 18.4556 2.04545 18.4556H12.9545C13.331 18.4556 13.6364 18.1098 13.6364 17.6834V8.41702C13.6364 7.99055 13.331 7.64482 12.9545 7.64482H11.25C10.8734 7.64482 10.5682 7.2991 10.5682 6.87263C10.5682 6.44616 10.8734 6.10043 11.25 6.10043H12.9545C14.0842 6.10043 15 7.1376 15 8.41702V17.6834C15 18.9628 14.0842 20 12.9545 20H2.04545C0.915777 20 0 18.9628 0 17.6834V8.41702C0 7.1376 0.915777 6.10043 2.04545 6.10043H3.75C4.12655 6.10043 4.43182 6.44616 4.43182 6.87263C4.43182 7.2991 4.12655 7.64482 3.75 7.64482H2.04545ZM6.81818 2.45002L4.86573 4.66128C4.62608 4.93267 4.23755 4.93267 3.99791 4.66128C3.75828 4.38987 3.75828 3.94984 3.99791 3.67843L7.06609 0.203555C7.18117 0.073221 7.33725 0 7.5 0C7.66275 0 7.81883 0.073221 7.93391 0.203555L11.0021 3.67843C11.2417 3.94984 11.2417 4.38987 11.0021 4.66128C10.7624 4.93267 10.3739 4.93267 10.1343 4.66128L8.18182 2.45002V13.0501C8.18182 13.4766 7.87655 13.8223 7.5 13.8223C7.12345 13.8223 6.81818 13.4766 6.81818 13.0501V2.45002Z" fill="white"/>
</svg>
