<svg width="41" height="40" viewBox="0 0 41 40" fill="none" xmlns="http://www.w3.org/2000/svg">
<g clip-path="url(#clip0_242_1896)">
<path d="M10.8438 27.5234C10.4297 23.1016 9.92188 20.8672 9.85156 12.5313C9.83594 10.7578 11.2813 9.31251 13.0547 9.31251H31.8672C36.8516 9.31251 38.2109 11.2422 38.8203 14.6406C38.8203 14.3672 38.8047 14.125 38.7734 13.9375C37.5312 6.1172 29.9219 5.69532 26.0625 5.70314H13.4844C2.00781 5.70314 1.82813 17.9844 0.656251 25.0469C-0.117186 29.6953 1.95313 33.9531 5.67969 33.9531H6.71094C8.01563 33.7266 11.3281 32.625 10.8438 27.5234Z" fill="#E5C591"/>
<path d="M6.64062 9.78906L6.82812 9.49219L7.0625 9.16406C7.21094 8.95313 7.50781 8.90625 7.71094 9.05469C7.91406 9.20312 7.96875 9.5 7.82031 9.70312L7.8125 9.71094L7.78906 9.73438C7.78906 9.73438 7.69531 9.85156 7.60156 9.97656C7.50781 10.125 7.40625 10.2734 7.40625 10.2734C7.26562 10.4844 6.98438 10.5469 6.77344 10.4062C6.57031 10.2734 6.50781 10 6.64062 9.78906ZM40.4531 26.1484C40.2812 24.7891 39.4141 19.7031 39.1328 17.0703C38.6172 12.1719 37.9297 9.30469 31.8516 9.30469H13.0469C11.2734 9.30469 9.82812 10.75 9.84375 12.5234C9.91406 20.8594 10.4219 23.0938 10.8359 27.5156C11.3828 33.3516 6.98437 33.9531 6.28125 34H6.3125C6.95313 34 25.5 34.2891 33.1562 34.2891C40.3828 34.2969 40.6484 33.0703 40.4531 26.1484ZM8.14844 8.11719C8.14844 8.11719 8.29687 8.01563 8.4375 7.92188L8.78125 7.71875C9.01562 7.57813 9.3125 7.65625 9.44531 7.89062C9.57812 8.125 9.50781 8.42188 9.27344 8.55469H9.26562L9.24219 8.57031C9.24219 8.57031 9.10937 8.64844 8.97656 8.71875C8.82812 8.8125 8.67969 8.91406 8.67969 8.91406C8.46094 9.0625 8.15625 9 8.01562 8.78125C7.86719 8.5625 7.92969 8.26563 8.14844 8.11719ZM10.1406 7.14063L10.8203 6.95312C11.0859 6.88281 11.3594 7.03906 11.4375 7.30469C11.5156 7.57031 11.3516 7.84375 11.0859 7.92188H11.0781L10.3984 8.10156C10.1328 8.17187 9.85937 8.00781 9.78906 7.75C9.71875 7.48437 9.875 7.21094 10.1406 7.14063ZM12.25 6.71875L12.9531 6.65625C13.2344 6.63281 13.4766 6.83594 13.5 7.11719C13.5234 7.39844 13.3203 7.64062 13.0391 7.66406L12.3359 7.71875C12.0547 7.74219 11.8125 7.53125 11.7891 7.25781C11.7734 6.98438 11.9766 6.74219 12.25 6.71875ZM14.3594 6.60156H15.0625C15.3437 6.60156 15.5703 6.82812 15.5703 7.10938C15.5703 7.39062 15.3437 7.61719 15.0625 7.61719H14.3594C14.0781 7.61719 13.8516 7.39062 13.8437 7.10938C13.8516 6.83594 14.0781 6.60156 14.3594 6.60156ZM16.4375 6.60156H17.1406C17.4219 6.60156 17.6484 6.82812 17.6484 7.10938C17.6484 7.39062 17.4219 7.61719 17.1406 7.61719H16.4375C16.1562 7.61719 15.9297 7.39062 15.9297 7.10938C15.9297 6.82812 16.1484 6.60156 16.4375 6.60156ZM18.5078 6.60937H19.2109C19.4922 6.60937 19.7109 6.83594 19.7109 7.11719C19.7109 7.39062 19.4844 7.61719 19.2109 7.61719H18.5078C18.2266 7.61719 18 7.39062 18 7.11719C17.9922 6.83594 18.2187 6.60937 18.5078 6.60937ZM20.5781 6.61719H21.2812C21.5547 6.61719 21.7734 6.84375 21.7734 7.10938C21.7734 7.38281 21.5547 7.59375 21.2812 7.60156H20.5781C20.3047 7.60156 20.0781 7.38281 20.0781 7.10938C20.0781 6.84375 20.2969 6.61719 20.5781 6.61719ZM22.6484 6.63281L23.3516 6.64062C23.6172 6.64062 23.8281 6.85937 23.8281 7.125C23.8281 7.39062 23.6172 7.60156 23.3516 7.60156L22.6484 7.60938C22.3828 7.60938 22.1641 7.39844 22.1562 7.125C22.1562 6.85156 22.3672 6.63281 22.6484 6.63281C22.6406 6.63281 22.6406 6.63281 22.6484 6.63281ZM24.7109 6.64844L25.4141 6.65625C25.6719 6.65625 25.875 6.86719 25.8672 7.125C25.8672 7.375 25.6641 7.57812 25.4141 7.57812L24.7109 7.58594C24.4531 7.58594 24.2422 7.38281 24.2422 7.125C24.2422 6.86719 24.4453 6.65625 24.7031 6.65625L24.7109 6.64844ZM26.7812 6.66406L27.4844 6.67188C27.7266 6.67188 27.9219 6.875 27.9219 7.11719C27.9219 7.35937 27.7266 7.55469 27.4844 7.55469L26.7812 7.5625C26.5312 7.5625 26.3281 7.36719 26.3281 7.11719C26.3281 6.86719 26.5234 6.66406 26.7734 6.66406H26.7812ZM28.8672 6.6875L29.5703 6.71875C29.7969 6.72656 29.9766 6.92187 29.9609 7.15625C29.9531 7.38281 29.7578 7.55469 29.5391 7.55469L28.8359 7.53906C28.6016 7.53125 28.4141 7.34375 28.4141 7.10156C28.4219 6.86719 28.6094 6.67969 28.8516 6.67969C28.8594 6.6875 28.8672 6.6875 28.8672 6.6875ZM30.9766 6.875L31.6719 6.99219C31.8828 7.02344 32.0234 7.22656 31.9844 7.42969C31.9531 7.63281 31.7578 7.77344 31.5547 7.75L30.8594 7.65625C30.6406 7.625 30.4922 7.42969 30.5234 7.21094C30.5547 6.99219 30.75 6.84375 30.9687 6.875C30.9687 6.86719 30.9766 6.86719 30.9766 6.875ZM33.0547 7.32031L33.7266 7.53906C33.8984 7.59375 34 7.78125 33.9375 7.96094C33.8828 8.13281 33.7031 8.22656 33.5312 8.17969L32.8516 7.99219C32.6641 7.9375 32.5547 7.75 32.6094 7.5625C32.6641 7.375 32.8516 7.26562 33.0391 7.32031H33.0547ZM35.0234 8.11719C35.0234 8.11719 35.1797 8.20312 35.3281 8.28906C35.4844 8.38281 35.6406 8.48437 35.6406 8.48437C35.7656 8.5625 35.8047 8.73438 35.7266 8.85938C35.6484 8.98438 35.4922 9.02344 35.3672 8.95312L35.3516 8.94531L35.0547 8.78906C34.8984 8.71094 34.7344 8.63281 34.7344 8.63281C34.5859 8.5625 34.5234 8.38281 34.5937 8.24219C34.6641 8.10156 34.8437 8.03125 34.9844 8.10156C35.0156 8.10937 35.0156 8.11719 35.0234 8.11719Z" fill="#FFE1AB"/>
<path d="M36.7499 9.38282C36.7499 9.38282 36.8671 9.51564 36.9921 9.64064C37.1093 9.78126 37.2265 9.9297 37.2265 9.9297C37.2968 10.0156 37.2811 10.1328 37.1952 10.2031C37.1171 10.2656 36.9999 10.2578 36.9296 10.1875L36.9218 10.1797C36.9218 10.1797 36.8046 10.0625 36.6952 9.93751C36.5624 9.82032 36.4374 9.69532 36.4374 9.69532C36.3436 9.60939 36.3436 9.46876 36.4218 9.38282C36.5077 9.28907 36.6483 9.28907 36.7343 9.3672L36.7499 9.38282ZM37.9218 11.1563C37.9218 11.1563 37.9843 11.3203 38.039 11.4844C38.0858 11.6563 38.1327 11.8359 38.1327 11.8359C38.1483 11.8906 38.1171 11.9453 38.0624 11.9609C38.0155 11.9766 37.9608 11.9453 37.9452 11.8984V11.8906C37.9452 11.8906 37.8827 11.7344 37.8202 11.5703C37.7499 11.4141 37.6718 11.25 37.6718 11.25C37.6405 11.1797 37.6718 11.1016 37.7343 11.0703C37.7968 11.0391 37.8827 11.0703 37.914 11.1328C37.914 11.1484 37.914 11.1563 37.9218 11.1563ZM38.2811 13.2109L38.2655 13.5547L38.2343 13.2109C38.2343 13.1953 38.2421 13.1875 38.2577 13.1875C38.2733 13.1875 38.2811 13.1953 38.2811 13.2109Z" fill="#FFE1AB"/>
<path d="M6.95316 12.8047L6.65628 17.9766C6.60941 18.7891 5.91409 19.4141 5.09378 19.3672C4.28128 19.3203 3.65628 18.625 3.70316 17.8047C3.71097 17.6953 3.72659 17.5859 3.75784 17.4844L5.17972 12.5C5.31253 12.0156 5.82034 11.7422 6.29691 11.875C6.71097 11.9922 6.97659 12.3828 6.95316 12.8047Z" fill="#FFF4E3"/>
<path d="M6.59375 10.8594C6.35938 10.7969 6.125 10.9453 6.0625 11.1797L5.97656 11.5156C5.9375 11.6641 5.98438 11.8125 6.07813 11.9141L5.50781 11.8047L5.23438 13.2109L6.58594 13.4844L6.85938 12.0781L6.57031 12.0234C6.67969 11.9688 6.76562 11.875 6.80469 11.75L6.89844 11.4219V11.4063C6.97656 11.1484 6.82813 10.9141 6.59375 10.8594Z" fill="#FFE1AB" stroke="#FFE1AB" stroke-width="0.3535" stroke-miterlimit="10" stroke-linecap="round" stroke-linejoin="round"/>
</g>
<defs>
<clipPath id="clip0_242_1896">
<rect width="40" height="40" fill="white" transform="translate(0.5)"/>
</clipPath>
</defs>
</svg>
