<svg width="41" height="40" viewBox="0 0 41 40" fill="none" xmlns="http://www.w3.org/2000/svg">
<path d="M39.3889 28.8889C39.3889 30.0676 38.9206 31.1981 38.0871 32.0316C37.2536 32.8651 36.1232 33.3333 34.9444 33.3333H6.05553C4.87679 33.3333 3.74633 32.8651 2.91283 32.0316C2.07934 31.1981 1.61108 30.0676 1.61108 28.8889V7.01444C1.61108 4.56 8.04553 0 10.5 0H33.4166C36.8544 0 39.3889 2.56889 39.3889 5.97222V28.8889Z" fill="#226699"/>
<path d="M37.1666 33.3333C37.1666 34.5121 36.6983 35.6425 35.8648 36.476C35.0313 37.3095 33.9009 37.7778 32.7221 37.7778H8.2777C7.09896 37.7778 5.9685 37.3095 5.135 36.476C4.30151 35.6425 3.83325 34.5121 3.83325 33.3333V6.66667C3.83325 2.09 3.80992 2.22223 9.38881 2.22223H32.7221C33.9009 2.22223 35.0313 2.69048 35.8648 3.52397C36.6983 4.35747 37.1666 5.48793 37.1666 6.66667V33.3333Z" fill="#CCD6DD"/>
<path d="M34.9444 34.4445C34.9444 35.3285 34.5932 36.1764 33.9681 36.8015C33.343 37.4266 32.4951 37.7778 31.6111 37.7778H4.94442C4.06036 37.7778 3.21252 37.4266 2.58739 36.8015C1.96227 36.1764 1.61108 35.3285 1.61108 34.4445V7.77779C1.61108 6.89374 1.96227 6.04589 2.58739 5.42077C3.21252 4.79565 4.06036 4.44446 4.94442 4.44446H31.6111C32.4951 4.44446 33.343 4.79565 33.9681 5.42077C34.5932 6.04589 34.9444 6.89374 34.9444 7.77779V34.4445Z" fill="#E1E8ED"/>
<path d="M34.9444 35.5555C34.9444 36.7343 34.4761 37.8647 33.6426 38.6982C32.8091 39.5317 31.6787 40 30.4999 40H7.16661C5.98787 40 4.85741 39.5317 4.02392 38.6982C3.19042 37.8647 2.72217 36.7343 2.72217 35.5555V11.1111C2.72217 9.93236 3.19042 8.8019 4.02392 7.9684C4.85741 7.13491 5.98787 6.66666 7.16661 6.66666H30.4999C31.6787 6.66666 32.8091 7.13491 33.6426 7.9684C34.4761 8.8019 34.9444 9.93236 34.9444 11.1111V35.5555Z" fill="#3B88C3"/>
<path d="M32.7222 35.5555C32.7222 36.7343 32.2539 37.8648 31.4204 38.6982C30.5869 39.5317 29.4565 40 28.2777 40H7.16661C5.98787 40 4.85741 39.5317 4.02392 38.6982C3.19042 37.8648 2.72217 36.7343 2.72217 35.5555V13.3333C2.72217 12.1546 3.19042 11.0241 4.02392 10.1906C4.85741 9.35714 5.98787 8.88889 7.16661 8.88889H28.6499C31.1044 8.88889 32.7222 10.5067 32.7222 12.9611V35.5555Z" fill="#55ACEE"/>
<path d="M7.16664 6.66667C5.29108 6.66667 5.24331 4.53111 6.05553 3.61111C6.97997 2.56556 8.41664 2.22222 10.9866 2.22222H12.7222V0H9.70108C5.29108 0 1.61108 2.77778 1.61108 5.97222V35.5556C1.61108 36.7343 2.07934 37.8648 2.91283 38.6983C3.74633 39.5317 4.87679 40 6.05553 40H8.27775V6.66667H7.16664Z" fill="#226699"/>
</svg>
