<svg width="40" height="40" viewBox="0 0 40 40" fill="none" xmlns="http://www.w3.org/2000/svg">
<g clip-path="url(#clip0_221_1330)">
<path d="M40 24.4444C40 25.6232 39.5317 26.7536 38.6983 27.5871C37.8648 28.4206 36.7343 28.8889 35.5556 28.8889H4.44444C3.2657 28.8889 2.13524 28.4206 1.30175 27.5871C0.468253 26.7536 0 25.6232 0 24.4444V4.44444C0 3.2657 0.468253 2.13524 1.30175 1.30175C2.13524 0.468253 3.2657 0 4.44444 0L35.5556 0C36.7343 0 37.8648 0.468253 38.6983 1.30175C39.5317 2.13524 40 3.2657 40 4.44444V24.4444Z" fill="#CCD6DD"/>
<path d="M4.44434 4.44444H35.5554V24.4444H4.44434V4.44444Z" fill="#5DADEC"/>
<path d="M14.4443 28.8889H25.5554V35.5556H14.4443V28.8889Z" fill="#CCD6DD"/>
<path d="M14.4443 28.8889H25.5554V31.1111H14.4443V28.8889Z" fill="#9AAAB4"/>
<path d="M40 36.6667C40 35.7826 39.6488 34.9348 39.0237 34.3096C38.3986 33.6845 37.5507 33.3333 36.6667 33.3333H3.33333C2.44928 33.3333 1.60143 33.6845 0.976311 34.3096C0.351189 34.9348 0 35.7826 0 36.6667C0 37.5507 0.351189 38.3986 0.976311 39.0237C1.60143 39.6488 2.44928 40 3.33333 40H36.6667C37.5507 40 38.3986 39.6488 39.0237 39.0237C39.6488 38.3986 40 37.5507 40 36.6667Z" fill="#E1E8ED"/>
<path d="M3.33325 35.5556H5.55547V37.7778H3.33325V35.5556ZM7.7777 35.5556H9.99992V37.7778H7.7777V35.5556ZM12.2221 35.5556H14.4444V37.7778H12.2221V35.5556ZM16.6666 35.5556H18.8888V37.7778H16.6666V35.5556ZM21.111 35.5556H23.3333V37.7778H21.111V35.5556ZM25.5555 35.5556H27.7777V37.7778H25.5555V35.5556ZM29.9999 35.5556H32.2221V37.7778H29.9999V35.5556ZM34.4444 35.5556H36.6666V37.7778H34.4444V35.5556Z" fill="#F5F8FA"/>
</g>
<defs>
<clipPath id="clip0_221_1330">
<rect width="40" height="40" fill="white"/>
</clipPath>
</defs>
</svg>
