<svg width="41" height="40" viewBox="0 0 41 40" fill="none" xmlns="http://www.w3.org/2000/svg">
<path d="M31.5 4C29.1131 4 26.8239 4.94821 25.136 6.63604C23.4482 8.32387 22.5 10.6131 22.5 13V17C22.5 17.7956 22.8161 18.5587 23.3787 19.1213C23.9413 19.6839 24.7044 20 25.5 20H26.408L26.348 20.712C26.2301 22.0731 26.1154 23.4344 26.004 24.796C25.756 27.81 25.5 31.118 25.5 32C25.5 33.0609 25.9214 34.0783 26.6716 34.8284C27.4217 35.5786 28.4391 36 29.5 36C30.5609 36 31.5783 35.5786 32.3284 34.8284C33.0786 34.0783 33.5 33.0609 33.5 32C33.5 31.12 33.244 27.81 32.996 24.796C32.8486 22.9983 32.6966 21.2009 32.54 19.404L32.5 18.956V5C32.5 4.73478 32.3946 4.48043 32.2071 4.29289C32.0196 4.10536 31.7652 4 31.5 4Z" fill="url(#paint0_linear_422_1607)"/>
<path d="M9.484 4H9.51C10.07 4 10.524 4.454 10.524 5.012V13.01C10.5161 13.1451 10.536 13.2803 10.5824 13.4074C10.6288 13.5345 10.7008 13.6507 10.7939 13.7488C10.887 13.847 10.9992 13.9251 11.1236 13.9782C11.248 14.0313 11.382 14.0584 11.5173 14.0577C11.6526 14.057 11.7863 14.0286 11.9102 13.9742C12.0341 13.9198 12.1455 13.8407 12.2376 13.7415C12.3297 13.6424 12.4005 13.5255 12.4456 13.398C12.4907 13.2704 12.5093 13.135 12.5 13V5C12.5 4.73478 12.6054 4.48043 12.7929 4.29289C12.9804 4.10536 13.2348 4 13.5 4C13.7652 4 14.0196 4.10536 14.2071 4.29289C14.3946 4.48043 14.5 4.73478 14.5 5V13.052C14.5056 13.3146 14.6152 13.5642 14.8048 13.7459C14.9944 13.9276 15.2484 14.0266 15.511 14.021C15.7736 14.0154 16.0232 13.9058 16.2049 13.7162C16.3866 13.5266 16.4856 13.2726 16.48 13.01V5.01C16.48 4.74386 16.585 4.48846 16.7723 4.29933C16.9595 4.11021 17.2139 4.00264 17.48 4H17.518C17.7534 4.00426 17.9798 4.09145 18.1572 4.2462C18.3346 4.40096 18.4518 4.61336 18.488 4.846C18.514 5.002 19.5 11.184 19.5 14C19.5 15.9 18.616 17.594 17.24 18.69C16.74 19.092 16.5 19.528 16.5 19.892V20.892C16.5 20.928 16.502 20.964 16.506 21C16.56 21.52 16.808 23.858 17.042 26.262C17.272 28.632 17.5 31.162 17.5 32C17.5 33.0609 17.0786 34.0783 16.3284 34.8284C15.5783 35.5786 14.5609 36 13.5 36C12.4391 36 11.4217 35.5786 10.6716 34.8284C9.92143 34.0783 9.5 33.0609 9.5 32C9.5 31.16 9.728 28.632 9.958 26.262C10.192 23.858 10.438 21.518 10.494 21.002L10.5 20.892V19.892C10.5 19.526 10.26 19.092 9.76 18.69C9.05523 18.1282 8.48608 17.4148 8.09482 16.6029C7.70357 15.7909 7.50026 14.9013 7.5 14C7.5 11.19 8.48 5.036 8.512 4.848C8.54934 4.61532 8.66702 4.40309 8.8446 4.24817C9.02217 4.09325 9.24841 4.00544 9.484 4Z" fill="url(#paint1_linear_422_1607)"/>
<defs>
<linearGradient id="paint0_linear_422_1607" x1="20.808" y1="6" x2="47.668" y2="14.782" gradientUnits="userSpaceOnUse">
<stop stop-color="#6CE0FF"/>
<stop offset="1" stop-color="#0067BF"/>
</linearGradient>
<linearGradient id="paint1_linear_422_1607" x1="5.654" y1="6" x2="34.428" y2="16.262" gradientUnits="userSpaceOnUse">
<stop stop-color="#6CE0FF"/>
<stop offset="1" stop-color="#0067BF"/>
</linearGradient>
</defs>
</svg>
