<svg width="41" height="40" viewBox="0 0 41 40" fill="none" xmlns="http://www.w3.org/2000/svg">
<path d="M13.8333 22.2222C12.6111 22.2222 11.6111 23.2222 11.6111 24.4445V35.5556C11.6111 36.7778 12.6111 37.7778 13.8333 37.7778C15.0555 37.7778 16.0555 36.7778 16.0555 35.5556V24.4445C16.0555 23.2222 15.0555 22.2222 13.8333 22.2222ZM33.8333 22.2222C32.6111 22.2222 31.6111 23.2222 31.6111 24.4445V35.5556C31.6111 36.7778 32.6111 37.7778 33.8333 37.7778C35.0555 37.7778 36.0555 36.7778 36.0555 35.5556V24.4445C36.0555 23.2222 35.0555 22.2222 33.8333 22.2222Z" fill="#A4523A"/>
<path d="M14.9443 2.22223H32.7221V11.1111H14.9443V2.22223Z" fill="#C1694F"/>
<path d="M18.2779 10H20.5001V24.4444H18.2779V10ZM22.7223 10H24.9446V24.4444H22.7223V10ZM27.1668 10H29.389V24.4444H27.1668V10ZM8.27789 25.5556C7.05566 25.5556 6.05566 26.5556 6.05566 27.7778V37.7778C6.05566 39 7.05566 40 8.27789 40C9.50011 40 10.5001 39 10.5001 37.7778V27.7778C10.5001 26.5556 9.50011 25.5556 8.27789 25.5556Z" fill="#C1694F"/>
<path d="M28.2778 23.3333C27.0555 23.3333 26.0555 24.3333 26.0555 25.5556V37.7778C26.0555 39 27.0555 40 28.2778 40C29.5 40 30.5 39 30.5 37.7778V25.5556C30.5 24.3333 29.5 23.3333 28.2778 23.3333ZM13.8333 0C12.6111 0 11.6111 1 11.6111 2.22222V24.4444H16.0555V2.22222C16.0555 1 15.0555 0 13.8333 0ZM33.8333 0C32.6111 0 31.6111 1 31.6111 2.22222V24.4444H36.0555V2.22222C36.0555 1 35.0555 0 33.8333 0Z" fill="#C1694F"/>
<path d="M16.0557 2.22223H17.1668V11.1111H16.0557V2.22223ZM31.6112 11.1111H30.5001V2.22223H31.6112V11.1111Z" fill="#A4523A"/>
<path d="M34.6878 22.2222H11.99C11.7423 22.2222 11.4989 22.29 11.2867 22.4167L4.67114 25.7956C4.67114 25.7956 29.9223 28.4822 32.1445 28.4822L35.51 25.9656C35.8534 25.7078 36.0556 25.3022 36.0556 24.8711V23.59C36.0557 23.4103 36.0205 23.2324 35.9518 23.0664C35.8831 22.9004 35.7823 22.7496 35.6553 22.6225C35.5283 22.4955 35.3774 22.3947 35.2114 22.326C35.0454 22.2574 34.8675 22.2221 34.6878 22.2222Z" fill="#D99E82"/>
<path d="M18.2779 11.1111H20.5001V12.2222H18.2779V11.1111ZM6.05566 28.8889H10.5001V30H6.05566V28.8889ZM26.0557 28.8889H30.5001V30H26.0557V28.8889ZM22.7223 11.1111H24.9446V12.2222H22.7223V11.1111ZM27.1668 11.1111H29.389V12.2222H27.1668V11.1111Z" fill="#A4523A"/>
<path d="M30.9888 28.8889H5.56659C4.60881 28.8889 3.83325 28.1422 3.83325 27.2222C3.83325 26.3022 4.60881 25.5555 5.56659 25.5555H30.9888C31.9466 25.5555 32.7221 26.3022 32.7221 27.2222C32.7221 28.1422 31.9466 28.8889 30.9888 28.8889Z" fill="#C1694F"/>
</svg>
