<svg width="41" height="40" viewBox="0 0 41 40" fill="none" xmlns="http://www.w3.org/2000/svg">
<g clip-path="url(#clip0_242_1844)">
<path d="M2.86659 16.5067L2.86214 16.5045C2.86214 16.5045 0.583252 30.3011 0.583252 32.29C0.583252 34.3167 2.07547 35.9589 3.91659 35.9589C4.67214 35.9589 5.36103 35.6722 5.91992 35.2056L17.2155 25.2745L2.86659 16.5067ZM38.0777 16.5067L38.0821 16.5045C38.0821 16.5045 40.361 30.3011 40.361 32.29C40.361 34.3167 38.8688 35.9589 37.0277 35.9589C36.2721 35.9589 35.5833 35.6722 35.0244 35.2056L23.7288 25.2745L38.0777 16.5067Z" fill="#31373D"/>
<path d="M29.3612 26.7233C34.5772 26.7233 38.8056 22.4949 38.8056 17.2789C38.8056 12.0629 34.5772 7.83444 29.3612 7.83444C24.1452 7.83444 19.9167 12.0629 19.9167 17.2789C19.9167 22.4949 24.1452 26.7233 29.3612 26.7233Z" fill="#14171A"/>
<path d="M11.5834 26.7233C16.7994 26.7233 21.0278 22.4949 21.0278 17.2789C21.0278 12.0629 16.7994 7.83444 11.5834 7.83444C6.36734 7.83444 2.13892 12.0629 2.13892 17.2789C2.13892 22.4949 6.36734 26.7233 11.5834 26.7233Z" fill="#14171A"/>
<path d="M11.5833 7.83444H29.361V26.5789H11.5833V7.83444Z" fill="#14171A"/>
<path d="M15.0277 31.4456C18.096 31.4456 20.5833 28.9582 20.5833 25.89C20.5833 22.8217 18.096 20.3344 15.0277 20.3344C11.9595 20.3344 9.47217 22.8217 9.47217 25.89C9.47217 28.9582 11.9595 31.4456 15.0277 31.4456Z" fill="#14171A"/>
<path d="M25.9166 31.4456C28.9849 31.4456 31.4722 28.9582 31.4722 25.89C31.4722 22.8217 28.9849 20.3344 25.9166 20.3344C22.8484 20.3344 20.3611 22.8217 20.3611 25.89C20.3611 28.9582 22.8484 31.4456 25.9166 31.4456Z" fill="#14171A"/>
<path d="M25.9166 29.2233C27.7575 29.2233 29.2499 27.731 29.2499 25.89C29.2499 24.0491 27.7575 22.5567 25.9166 22.5567C24.0756 22.5567 22.5833 24.0491 22.5833 25.89C22.5833 27.731 24.0756 29.2233 25.9166 29.2233Z" fill="#67757F"/>
<path d="M15.0277 29.2233C16.8686 29.2233 18.361 27.731 18.361 25.89C18.361 24.0491 16.8686 22.5567 15.0277 22.5567C13.1867 22.5567 11.6943 24.0491 11.6943 25.89C11.6943 27.731 13.1867 29.2233 15.0277 29.2233Z" fill="#67757F"/>
<path d="M29.0943 14.1511C30.078 14.1511 30.8755 13.3537 30.8755 12.37C30.8755 11.3863 30.078 10.5889 29.0943 10.5889C28.1107 10.5889 27.3132 11.3863 27.3132 12.37C27.3132 13.3537 28.1107 14.1511 29.0943 14.1511Z" fill="#FFCC4D"/>
<path d="M29.0943 21.3444C30.078 21.3444 30.8755 20.547 30.8755 19.5633C30.8755 18.5797 30.078 17.7822 29.0943 17.7822C28.1107 17.7822 27.3132 18.5797 27.3132 19.5633C27.3132 20.547 28.1107 21.3444 29.0943 21.3444Z" fill="#77B255"/>
<path d="M25.4977 17.7478C26.4813 17.7478 27.2788 16.9503 27.2788 15.9667C27.2788 14.983 26.4813 14.1855 25.4977 14.1855C24.514 14.1855 23.7166 14.983 23.7166 15.9667C23.7166 16.9503 24.514 17.7478 25.4977 17.7478Z" fill="#50A5E6"/>
<path d="M32.691 17.7478C33.6747 17.7478 34.4721 16.9503 34.4721 15.9667C34.4721 14.983 33.6747 14.1855 32.691 14.1855C31.7073 14.1855 30.9099 14.983 30.9099 15.9667C30.9099 16.9503 31.7073 17.7478 32.691 17.7478Z" fill="#DD2E44"/>
<path d="M12.8866 13.9044V11.4956C12.8866 11.3467 12.8275 11.204 12.7223 11.0988C12.617 10.9936 12.4743 10.9344 12.3255 10.9344H10.5944C10.4456 10.9344 10.3029 10.9936 10.1976 11.0988C10.0924 11.204 10.0333 11.3467 10.0333 11.4956V13.9044L11.4599 15.3322L12.8866 13.9044ZM10.0322 17.9378V20.3467C10.0322 20.6567 10.2833 20.9078 10.5933 20.9078H12.3244C12.4732 20.9078 12.6159 20.8487 12.7212 20.7434C12.8264 20.6382 12.8855 20.4955 12.8855 20.3467V17.9378L11.4588 16.51L10.0322 17.9378ZM15.8866 14.4933H13.4777L12.0499 15.9211L13.4777 17.3489H15.8866C16.0353 17.3486 16.1779 17.2894 16.2831 17.1842C16.3882 17.0791 16.4474 16.9365 16.4477 16.7878V15.0556C16.4477 14.9066 16.3886 14.7638 16.2834 14.6584C16.1782 14.553 16.0355 14.4936 15.8866 14.4933ZM9.44328 14.4933H7.03328C6.88455 14.4936 6.742 14.5528 6.63684 14.658C6.53167 14.7632 6.47246 14.9057 6.47217 15.0544V16.7856C6.47217 17.0956 6.72328 17.3467 7.03328 17.3467H9.44217L10.8699 15.9189L9.44328 14.4933Z" fill="#8899A6"/>
</g>
<defs>
<clipPath id="clip0_242_1844">
<rect width="40" height="40" fill="white" transform="translate(0.5)"/>
</clipPath>
</defs>
</svg>
