<svg width="41" height="40" viewBox="0 0 41 40" fill="none" xmlns="http://www.w3.org/2000/svg">
<path d="M14.25 21.25H26.75V36.25H14.25V21.25Z" fill="url(#paint0_linear_242_1799)"/>
<path d="M17.8688 5.34626C18.6033 4.72183 19.5359 4.37898 20.5 4.37898C21.4641 4.37898 22.3967 4.72183 23.1312 5.34626L35.3187 15.705C35.7673 16.0864 36.1277 16.5607 36.3748 17.0951C36.622 17.6295 36.75 18.2112 36.75 18.8V33.125C36.75 33.9538 36.4208 34.7487 35.8347 35.3347C35.2487 35.9208 34.4538 36.25 33.625 36.25H25.5V25C25.5 24.3389 25.2382 23.7047 24.7717 23.2362C24.3053 22.7677 23.6723 22.503 23.0113 22.5H17.9875C17.3266 22.5033 16.6939 22.7682 16.2278 23.2366C15.7617 23.7051 15.5 24.3391 15.5 25V36.25H7.375C6.5462 36.25 5.75134 35.9208 5.16529 35.3347C4.57924 34.7487 4.25 33.9538 4.25 33.125V18.8C4.25003 18.2112 4.37805 17.6295 4.62518 17.0951C4.87231 16.5607 5.23265 16.0864 5.68125 15.705L17.8688 5.34626Z" fill="url(#paint1_linear_242_1799)"/>
<path fill-rule="evenodd" clip-rule="evenodd" d="M20.4476 6.64126L4.81005 19.3825C4.42466 19.6968 3.9302 19.8451 3.43546 19.7948C2.94071 19.7445 2.48621 19.4998 2.17193 19.1144C1.85765 18.729 1.70933 18.2345 1.75962 17.7398C1.8099 17.245 2.05466 16.7905 2.44005 16.4763L18.9026 3.06251C19.3629 2.68699 19.9419 2.48767 20.5358 2.50027C21.1298 2.51287 21.6998 2.73656 22.1438 3.13126L38.6213 17.0013C38.8053 17.1649 38.9553 17.3632 39.0627 17.5848C39.1701 17.8065 39.2327 18.0471 39.2471 18.2929C39.2615 18.5387 39.2273 18.785 39.1466 19.0177C39.0658 19.2503 38.94 19.4647 38.7763 19.6488C38.6126 19.8328 38.4143 19.9827 38.1927 20.0901C37.9711 20.1975 37.7305 20.2602 37.4847 20.2746C37.2388 20.289 36.9925 20.2548 36.7599 20.174C36.5273 20.0932 36.3128 19.9674 36.1288 19.8038L20.4476 6.64126Z" fill="url(#paint2_linear_242_1799)"/>
<defs>
<linearGradient id="paint0_linear_242_1799" x1="20.5" y1="21.25" x2="11.095" y2="38.6725" gradientUnits="userSpaceOnUse">
<stop stop-color="#944600"/>
<stop offset="1" stop-color="#CD8E02"/>
</linearGradient>
<linearGradient id="paint1_linear_242_1799" x1="7.3525" y1="2.82001" x2="38.745" y2="28.84" gradientUnits="userSpaceOnUse">
<stop stop-color="#FFD394"/>
<stop offset="1" stop-color="#FFB357"/>
</linearGradient>
<linearGradient id="paint2_linear_242_1799" x1="14.4401" y1="-1.7225" x2="21.9376" y2="19.6588" gradientUnits="userSpaceOnUse">
<stop stop-color="#FF921F"/>
<stop offset="1" stop-color="#EB4824"/>
</linearGradient>
</defs>
</svg>
