<svg width="41" height="40" viewBox="0 0 41 40" fill="none" xmlns="http://www.w3.org/2000/svg">
<path d="M21.75 8.1125C21.75 8.60647 21.5538 9.0802 21.2045 9.42949C20.8552 9.77877 20.3815 9.975 19.8875 9.975C19.3935 9.975 18.9198 9.77877 18.5705 9.42949C18.2212 9.0802 18.025 8.60647 18.025 8.1125C18.025 7.61853 18.2212 7.1448 18.5705 6.79551C18.9198 6.44623 19.3935 6.25 19.8875 6.25C20.3815 6.25 20.8552 6.44623 21.2045 6.79551C21.5538 7.1448 21.75 7.61853 21.75 8.1125ZM38 20.9125C38 25.2375 34.4875 28.75 30.1625 28.75H24.025L29.2 18.775C29.5919 18.0153 30.1851 17.3779 30.9148 16.9326C31.6446 16.4873 32.4826 16.2511 33.3375 16.25C34.5741 16.25 35.76 16.7412 36.6344 17.6156C37.5088 18.49 38 19.6759 38 20.9125ZM33.3375 18.75C32.525 18.75 31.7875 19.2 31.4125 19.9125L28.1375 26.25H30.1625C31.5771 26.2467 32.9328 25.6833 33.933 24.683C34.9333 23.6828 35.4967 22.3271 35.5 20.9125C35.5 19.725 34.525 18.75 33.3375 18.75ZM26.575 36.175L25.3625 35L19.8825 33.7087L14.325 35L13.1125 36.175C12.6125 36.6625 12.9625 37.5 13.65 37.5H26.0375C26.725 37.5 27.0625 36.6625 26.575 36.175ZM11.3875 33.025L11.4 33.0375H11.3875V33.025ZM6.125 28.025L11.3875 33.025V20.25L8.0625 18.5C7.79745 18.3621 7.57554 18.1538 7.42117 17.898C7.26681 17.6422 7.18595 17.3488 7.1875 17.05V14.4125C7.1875 14.05 6.8875 13.75 6.525 13.75H3.6625C3.3 13.75 3 14.05 3 14.4125V20.7375C3 23.4875 4.125 26.125 6.125 28.025Z" fill="#CA0B4A"/>
<path d="M28.0875 12.5C26.1 10.2 23.1625 8.75 19.8875 8.75C16.6125 8.75 13.675 10.2 11.6875 12.5H28.0875ZM31.5124 19L31.4375 18.8188L31.3625 18.6375L29.3249 13.75L19.8 12.92L10.275 13.75L8.23745 18.65L8.16245 18.825L8.08745 19V19.0125C7.51245 20.45 7.19995 22.0125 7.19995 23.6625C7.19981 26.0314 7.86813 28.3522 9.12808 30.3582C10.388 32.3643 12.1885 33.974 14.3225 35.0025L14.325 35H25.2812C27.4151 33.9691 29.2149 32.3572 30.4741 30.3496C31.7334 28.3419 32.4008 26.0199 32.4 23.65C32.4 22.0125 32.0875 20.4375 31.5124 19Z" fill="#F8312F"/>
<path d="M29.575 11.875H10.1875C9.675 11.875 9.25 12.3 9.25 12.8125C9.25 13.325 9.675 13.75 10.1875 13.75H29.575C30.0875 13.75 30.5125 13.325 30.5125 12.8125C30.5125 12.3 30.0875 11.875 29.575 11.875Z" fill="#FF822D"/>
</svg>
