<svg width="41" height="40" viewBox="0 0 41 40" fill="none" xmlns="http://www.w3.org/2000/svg">
<g clip-path="url(#clip0_242_1824)">
<path d="M39.3332 11.0556L32.4999 4.22222C31.7777 3.38889 30.7777 2.88889 29.611 2.88889H11.3888C10.2221 2.88889 9.16656 3.38889 8.49989 4.22222L1.611 11.0556C1.22211 11.4444 1.22211 12.1111 1.611 12.5L6.49989 17.3889C6.88878 17.7778 7.55545 17.7778 7.94433 17.3889L9.05545 16.2778V37.3333C9.05545 38 12.0554 39.9444 20.3888 39.9444C28.7221 39.9444 31.7221 38 31.7221 37.3333V16.1111L32.9999 17.3889C33.3888 17.7778 34.0554 17.7778 34.4443 17.3889L39.3332 12.5C39.7221 12.1667 39.7221 11.5 39.3332 11.0556Z" fill="#76DFFF"/>
<path d="M17.1112 2.5H23.6667C24.6667 2.5 25.5001 3.11111 25.5001 3.88889V4.77778C25.5001 5.55556 21.9445 9.33333 20.9445 9.33333H19.8334C18.8334 9.33333 15.2778 5.5 15.2778 4.77778V3.88889C15.3334 3.11111 16.1112 2.5 17.1112 2.5Z" fill="#0096D1"/>
<path d="M26.1667 0.777781C22.1667 -0.277774 18.7222 -0.277774 14.7222 0.777781C14.6111 0.833337 14.5556 2.66667 14.7778 3.44445C14.8333 3.55556 14.9444 3.61111 15.0556 3.61111C18.6111 2.66667 22.2778 2.66667 25.8333 3.61111C25.9444 3.66667 26.0556 3.55556 26.1111 3.44445C26.3333 2.66667 26.3333 0.833337 26.1667 0.777781Z" fill="#0074A8"/>
<path d="M8.77786 16.8333L7.38897 18.2778C7.38897 18.3333 7.33342 18.3333 7.27786 18.3333C7.2223 18.3333 7.16675 18.3333 7.16675 18.2778C7.16675 18.2778 5.77786 17.8333 3.55564 15.5556C1.33341 13.2778 0.833415 12.1111 0.833415 12.1111C0.777859 12.0556 0.777859 11.9444 0.833415 11.8333L2.2223 10.3889C2.27786 10.3333 2.33341 10.3333 2.33341 10.3333C2.38897 10.3333 2.44453 10.3333 2.44453 10.3889C2.44453 10.3889 3.11119 11.8333 5.11119 13.8333C7.11119 15.8333 8.77786 16.5556 8.77786 16.5556C8.88897 16.6667 8.88897 16.7778 8.77786 16.8333ZM32.1667 16.8333L33.5556 18.2778C33.6112 18.3333 33.6112 18.3333 33.6667 18.3333C33.7223 18.3333 33.7779 18.3333 33.7779 18.2778C33.7779 18.2778 35.1667 17.8333 37.389 15.5556C39.6112 13.2778 40.1112 12.1111 40.1112 12.1111C40.1668 12.0556 40.1668 11.9444 40.1112 11.8333L38.7223 10.3889C38.6668 10.3333 38.6112 10.3333 38.6112 10.3333C38.5556 10.3333 38.5001 10.3333 38.5001 10.3889C38.5001 10.3889 37.8334 11.8333 35.8334 13.8333C33.8334 15.8333 32.1667 16.6111 32.1667 16.6111C32.1112 16.6667 32.1112 16.7778 32.1667 16.8333ZM26.2779 0.833336C26.1667 0.777781 26.0556 0.777781 25.9445 0.888892L20.7779 8.88889C20.6667 9.05556 20.6667 9.22222 20.6667 9.38889H20.2779C20.3334 9.22222 20.2779 9.05556 20.1667 8.88889L14.9445 0.888892C14.889 0.777781 14.7223 0.777781 14.6112 0.833336C13.389 1.66667 13.0556 3.33334 13.8334 4.55556L17.889 10.8333C17.9445 10.8889 18.0001 10.9444 18.0556 10.9444H18.1112C18.1667 10.9444 18.2223 10.9444 18.2223 10.8889L20.0001 9.72222C20.1112 9.66667 20.1667 9.55556 20.2223 9.44445V17.5556C20.2223 17.6667 20.3334 17.7778 20.4445 17.7778C20.5556 17.7778 20.6667 17.6667 20.6667 17.5556V9.44445C20.7223 9.55556 20.7779 9.66667 20.889 9.77778L22.6667 10.9444C22.7223 10.9444 22.7223 11 22.7779 11H22.8334C22.889 11 22.9445 10.9444 23.0001 10.8889L27.0556 4.61111C27.889 3.33334 27.5556 1.66667 26.2779 0.833336Z" fill="#00B1FF"/>
<path d="M22.5555 12.2222C22.5555 12.5556 22.2777 12.8333 21.9444 12.8333C21.611 12.8333 21.3333 12.5556 21.3333 12.2222C21.3333 11.8889 21.611 11.6111 21.9444 11.6111C22.2777 11.6111 22.5555 11.8889 22.5555 12.2222ZM21.9444 14.2222C21.611 14.2222 21.3333 14.5 21.3333 14.8333C21.3333 15.1667 21.611 15.4444 21.9444 15.4444C22.2777 15.4444 22.5555 15.1667 22.5555 14.8333C22.5555 14.5 22.2777 14.2222 21.9444 14.2222ZM21.9444 16.7778C21.611 16.7778 21.3333 17.0556 21.3333 17.3889C21.3333 17.7222 21.611 18 21.9444 18C22.2777 18 22.5555 17.7222 22.5555 17.3889C22.5555 17.0556 22.2777 16.7778 21.9444 16.7778Z" fill="white"/>
</g>
<defs>
<clipPath id="clip0_242_1824">
<rect width="40" height="40" fill="white" transform="translate(0.5)"/>
</clipPath>
</defs>
</svg>
