<svg width="40" height="40" viewBox="0 0 40 40" fill="none" xmlns="http://www.w3.org/2000/svg">
<path d="M20.01 24.045C19.6975 24.045 19.4475 23.795 19.4475 23.4825V21.1L16.41 20.1912L14.2725 18.3662L19.4475 19.9162V19.5712C19.4475 18.3212 19.7975 17.0837 20.4975 16.0337C20.7066 15.7171 20.8795 15.3837 21.0162 15.0337L18.2462 14.205L15.0212 12.0537L21.3137 13.94C21.3612 13.65 21.385 13.3562 21.385 13.0587V10.4337H22.51V13.0587C22.51 13.2037 22.505 13.3479 22.495 13.4912L27.3462 12.0412L23.5937 14.3475L22.2925 14.735C22.115 15.406 21.8292 16.0436 21.4462 16.6225C20.8712 17.4975 20.5712 18.5225 20.5712 19.5725V20.8125L25.7337 19.265L22.5637 21.4L20.5725 21.9962V23.4837C20.5725 23.7962 20.3225 24.045 20.01 24.045Z" fill="#44911B"/>
<path d="M21.7626 2.59C19.4726 5.2525 19.4051 9.6425 21.6151 12.4012C21.7176 12.5237 21.8863 12.5375 21.9876 12.4137C24.2776 9.75125 24.3451 5.3625 22.1351 2.60375C22.0326 2.4675 21.8638 2.46625 21.7626 2.59ZM13.3226 14.4075L8.94756 13.095C8.21006 15.5575 9.61006 18.145 12.0601 18.895L16.4351 20.2075C17.1851 17.745 15.7851 15.145 13.3226 14.4075ZM30.0476 14.295L25.6726 15.6075C23.2101 16.3575 21.8101 18.945 22.5601 21.4075L26.9351 20.095C29.3851 19.345 30.7851 16.7575 30.0476 14.295ZM15.1601 8.42L10.7851 7.1075C10.0601 9.56999 11.4476 12.1575 13.9101 12.9075L18.2851 14.22C18.6387 13.0365 18.5083 11.761 17.9224 10.6735C17.3365 9.58611 16.343 8.77561 15.1601 8.42ZM31.0726 7.245L26.6976 8.5575C26.1111 8.732 25.565 9.02082 25.0907 9.40734C24.6163 9.79385 24.2232 10.2704 23.9339 10.8095C23.6446 11.3487 23.4648 11.9397 23.4049 12.5487C23.345 13.1576 23.4063 13.7723 23.5851 14.3575L27.9601 13.045C30.4101 12.295 31.8101 9.7075 31.0726 7.245Z" fill="#86D72F"/>
<path d="M27.5 25C25.3371 23.3756 22.7049 22.4982 20 22.5C17.1863 22.5 14.5812 23.4375 12.5 25L20 27.4613L27.5 25Z" fill="#7D4533"/>
<path d="M11.2588 29.995L12.2338 35.8575C12.3963 36.8075 13.2088 37.495 14.1588 37.495H25.8463C26.7963 37.495 27.6213 36.8075 27.7713 35.8575L28.7588 29.995L20.0088 28.0075L11.2588 29.995Z" fill="#F3AD61"/>
<path d="M29.375 30H10.625C10.275 30 10 29.725 10 29.375V25.625C10 25.275 10.275 25 10.625 25H29.375C29.725 25 30 25.275 30 25.625V29.375C30 29.725 29.725 30 29.375 30Z" fill="#F3C07B"/>
</svg>
