<svg width="40" height="40" viewBox="0 0 40 40" fill="none" xmlns="http://www.w3.org/2000/svg">
<path d="M10.6062 9.34686L7.9874 18.3375H4.62178C2.56553 18.3375 1.1499 19.6969 1.1499 21.6937V31.0312H33.9405V9.34686H10.6062Z" fill="#F79329"/>
<path d="M39.8218 26.0469C39.8218 26.95 39.0812 27.6906 38.1781 27.6906H36.2031C35.3 27.6906 34.5593 26.95 34.5593 26.0469V16.2031C34.5593 15.2969 35.3 14.5594 36.2031 14.5594H38.1781C39.0812 14.5594 39.8218 15.3 39.8218 16.2031V26.0469Z" fill="#2F2F2F"/>
<path d="M1.22178 29.4844C0.649902 29.4844 0.181152 29.0156 0.181152 28.4437V27.1969C0.181152 26.625 0.649902 26.1562 1.22178 26.1562H2.25615C2.82803 26.1562 3.29678 26.625 3.29678 27.1969V28.4437C3.29678 29.0156 2.82803 29.4844 2.25615 29.4844H1.22178Z" fill="#78A3AD"/>
<path d="M15.9532 32.4438C15.9532 35.45 13.5157 37.8813 10.5126 37.8813C7.50635 37.8813 5.06885 35.4469 5.06885 32.4438C5.06885 29.4375 7.50635 27.0063 10.5126 27.0063C13.5157 27.0063 15.9532 29.4375 15.9532 32.4438Z" fill="#2F2F2F"/>
<path d="M10.5125 34.6219C11.7172 34.6219 12.6938 33.6467 12.6938 32.4438C12.6938 31.2408 11.7172 30.2656 10.5125 30.2656C9.30788 30.2656 8.3313 31.2408 8.3313 32.4438C8.3313 33.6467 9.30788 34.6219 10.5125 34.6219Z" fill="#78A3AD"/>
<path d="M31.3907 32.4438C31.3907 35.45 28.9501 37.8813 25.9501 37.8813C22.9438 37.8813 20.5063 35.4469 20.5063 32.4438C20.5063 29.4375 22.9438 27.0063 25.9501 27.0063C28.9501 27.0063 31.3907 29.4375 31.3907 32.4438Z" fill="#2F2F2F"/>
<path d="M25.9469 34.6219C27.1515 34.6219 28.1281 33.6467 28.1281 32.4438C28.1281 31.2408 27.1515 30.2656 25.9469 30.2656C24.7422 30.2656 23.7656 31.2408 23.7656 32.4438C23.7656 33.6467 24.7422 34.6219 25.9469 34.6219Z" fill="#78A3AD"/>
<path d="M24.6313 11.7219H31.3876V19.775H24.6313V11.7219ZM12.6625 11.7219H19.9969V19.775H10.425L10.8563 18.0719L12.6625 11.7219Z" fill="#40C0E7"/>
</svg>
