<svg width="360" height="42" viewBox="0 0 360 42" fill="none" xmlns="http://www.w3.org/2000/svg">
<rect x="0.5" y="0.5" width="359" height="41" rx="20.5" stroke="#EDEDED"/>
<path d="M114.923 15.2741C115.117 15.2741 115.449 15.305 115.917 15.3669C116.385 15.4287 116.898 15.6054 117.454 15.897C118.02 16.1797 118.532 16.6524 118.992 17.3151C118.965 17.3416 118.837 17.4388 118.607 17.6067C118.378 17.7657 118.121 18.0043 117.839 18.3224C117.556 18.6316 117.309 19.0292 117.097 19.5152C116.884 19.9923 116.778 20.5622 116.778 21.2248C116.778 21.9847 116.911 22.6297 117.176 23.1598C117.45 23.69 117.764 24.1185 118.117 24.4454C118.479 24.7635 118.797 24.9976 119.071 25.1478C119.354 25.298 119.504 25.3776 119.522 25.3864C119.513 25.4217 119.398 25.7354 119.177 26.3274C118.965 26.9194 118.612 27.5776 118.117 28.3021C117.684 28.9294 117.216 29.5082 116.712 30.0383C116.217 30.5684 115.621 30.8335 114.923 30.8335C114.455 30.8335 114.07 30.7672 113.77 30.6347C113.47 30.4933 113.16 30.3564 112.842 30.2239C112.524 30.0825 112.096 30.0118 111.557 30.0118C111.035 30.0118 110.598 30.0825 110.245 30.2239C109.9 30.3652 109.569 30.5066 109.251 30.648C108.941 30.7893 108.575 30.86 108.151 30.86C107.506 30.86 106.94 30.6038 106.454 30.0913C105.968 29.5789 105.469 28.9648 104.956 28.2491C104.364 27.4009 103.856 26.3671 103.432 25.1478C103.017 23.9197 102.809 22.6827 102.809 21.4369C102.809 20.1027 103.061 18.985 103.565 18.0838C104.068 17.1737 104.713 16.489 105.5 16.0295C106.295 15.5612 107.117 15.3271 107.965 15.3271C108.416 15.3271 108.84 15.4022 109.237 15.5524C109.635 15.6938 110.006 15.8396 110.351 15.9898C110.704 16.14 111.022 16.2151 111.305 16.2151C111.579 16.2151 111.897 16.1355 112.259 15.9765C112.621 15.8175 113.028 15.6628 113.478 15.5126C113.929 15.3536 114.411 15.2741 114.923 15.2741ZM114.194 13.5909C113.849 14.0062 113.417 14.3552 112.895 14.6379C112.374 14.9118 111.879 15.0488 111.411 15.0488C111.314 15.0488 111.221 15.0399 111.133 15.0223C111.124 14.9958 111.115 14.9472 111.106 14.8765C111.097 14.8058 111.093 14.7307 111.093 14.6512C111.093 14.121 111.208 13.6086 111.437 13.1138C111.667 12.6102 111.928 12.1949 112.219 11.868C112.59 11.4262 113.059 11.0595 113.624 10.7679C114.19 10.4764 114.729 10.3217 115.241 10.3041C115.268 10.4189 115.281 10.5559 115.281 10.7149C115.281 11.2451 115.179 11.7619 114.976 12.2656C114.773 12.7604 114.512 13.2021 114.194 13.5909Z" fill="black"/>
<path d="M151.448 18.7129C151.353 17.79 150.546 17.2637 149.411 17.2637C148.201 17.2637 147.436 17.8857 147.429 18.7266C147.429 19.6631 148.447 20.0322 149.233 20.2168L150.19 20.4766C151.455 20.7842 153.041 21.4746 153.048 23.2656C153.041 24.9404 151.708 26.1641 149.37 26.1641C147.155 26.1641 145.761 25.0566 145.665 23.252H147.169C147.258 24.332 148.215 24.8447 149.37 24.8516C150.635 24.8447 151.551 24.209 151.558 23.2383C151.551 22.377 150.73 22.0283 149.685 21.748L148.509 21.4336C146.916 20.9961 145.932 20.1895 145.925 18.8086C145.932 17.0996 147.449 15.9648 149.452 15.9648C151.462 15.9648 152.863 17.1133 152.911 18.7129H151.448ZM154.538 26V18.5762H156.001V26H154.538ZM154.347 16.5664C154.354 16.0879 154.771 15.7051 155.276 15.7051C155.775 15.7051 156.192 16.0879 156.192 16.5664C156.192 17.0449 155.775 17.4346 155.276 17.4277C154.771 17.4346 154.354 17.0449 154.347 16.5664ZM160.896 28.9395C159.022 28.9395 157.785 28.1123 157.655 26.7246H159.146C159.289 27.4287 159.945 27.7705 160.909 27.7637C162.071 27.7705 162.803 27.2646 162.81 26.1094V24.6465H162.714C162.454 25.125 161.921 25.8906 160.554 25.8906C158.804 25.8906 157.45 24.585 157.45 22.2129C157.45 19.8408 158.783 18.4805 160.567 18.4805C161.948 18.4805 162.454 19.3145 162.728 19.7793H162.823V18.5762H164.245V26.1641C164.252 28.0713 162.81 28.9395 160.896 28.9395ZM158.94 22.2402C158.934 23.6963 159.604 24.6807 160.882 24.6875C162.126 24.6807 162.823 23.7715 162.823 22.2402C162.823 20.7363 162.14 19.7178 160.882 19.7246C159.59 19.7178 158.934 20.8184 158.94 22.2402ZM167.485 21.5977V26H166.022V18.5762H167.431V19.793H167.513C167.861 18.9932 168.593 18.4805 169.7 18.4805C171.225 18.4805 172.236 19.4443 172.229 21.2832V26H170.78V21.4609C170.773 20.3809 170.192 19.7383 169.208 19.7383C168.203 19.7383 167.485 20.415 167.485 21.5977ZM177.425 26V18.5762H178.888V26H177.425ZM177.233 16.5664C177.24 16.0879 177.657 15.7051 178.163 15.7051C178.662 15.7051 179.079 16.0879 179.079 16.5664C179.079 17.0449 178.662 17.4346 178.163 17.4277C177.657 17.4346 177.24 17.0449 177.233 16.5664ZM182.128 21.5977V26H180.665V18.5762H182.073V19.793H182.155C182.504 18.9932 183.235 18.4805 184.343 18.4805C185.867 18.4805 186.879 19.4443 186.872 21.2832V26H185.423V21.4609C185.416 20.3809 184.835 19.7383 183.851 19.7383C182.846 19.7383 182.128 20.415 182.128 21.5977ZM193.667 26L191.493 18.5762H192.997L194.446 24.0176H194.528L195.978 18.5762H197.481L198.917 23.9902H198.999L200.435 18.5762H201.938L199.765 26H198.274L196.771 20.6543H196.661L195.171 26H193.667ZM203.142 26V18.5762H204.604V26H203.142ZM202.95 16.5664C202.957 16.0879 203.374 15.7051 203.88 15.7051C204.379 15.7051 204.796 16.0879 204.796 16.5664C204.796 17.0449 204.379 17.4346 203.88 17.4277C203.374 17.4346 202.957 17.0449 202.95 16.5664ZM209.854 18.5762V19.7383H208.337V23.8125C208.344 24.6533 208.754 24.8037 209.226 24.8105C209.438 24.8105 209.759 24.79 209.964 24.7695V26.041C209.766 26.0684 209.451 26.0957 209.048 26.0957C207.906 26.0957 206.874 25.4668 206.888 24.1133V19.7383H205.794V18.5762H206.888V16.7988H208.337V18.5762H209.854ZM212.903 21.5977V26H211.44V16.1016H212.876V19.793H212.972C213.32 18.9863 214.018 18.4805 215.173 18.4805C216.697 18.4805 217.716 19.4238 217.716 21.2832V26H216.253V21.4609C216.253 20.3672 215.665 19.7383 214.681 19.7383C213.648 19.7383 212.903 20.415 212.903 21.5977ZM223.868 26H222.269L225.823 16.1016H227.56L231.128 26H229.528L228.626 23.3887H224.771L223.868 26ZM225.201 22.1309H228.188L226.726 17.9062H226.657L225.201 22.1309ZM232.263 28.7891V18.5762H233.685V19.7793H233.808C234.067 19.3145 234.566 18.4805 235.94 18.4805C237.738 18.4805 239.058 19.8887 239.058 22.3086C239.058 24.7012 237.752 26.1436 235.954 26.1504C234.607 26.1436 234.074 25.3232 233.808 24.8379H233.726V28.7891H232.263ZM233.698 22.2812C233.698 23.8398 234.382 24.8994 235.626 24.9062C236.911 24.8994 237.581 23.7715 237.581 22.2812C237.581 20.8184 236.932 19.7178 235.626 19.7246C234.368 19.7178 233.698 20.7363 233.698 22.2812ZM240.507 28.7891V18.5762H241.929V19.7793H242.052C242.312 19.3145 242.811 18.4805 244.185 18.4805C245.982 18.4805 247.302 19.8887 247.302 22.3086C247.302 24.7012 245.996 26.1436 244.198 26.1504C242.852 26.1436 242.318 25.3232 242.052 24.8379H241.97V28.7891H240.507ZM241.942 22.2812C241.942 23.8398 242.626 24.8994 243.87 24.9062C245.155 24.8994 245.825 23.7715 245.825 22.2812C245.825 20.8184 245.176 19.7178 243.87 19.7246C242.612 19.7178 241.942 20.7363 241.942 22.2812ZM250.214 16.1016V26H248.751V16.1016H250.214ZM255.19 26.1504C253.003 26.1504 251.656 24.6396 251.663 22.3359C251.656 20.0527 253.023 18.4805 255.095 18.4805C256.783 18.4805 258.39 19.5264 258.39 22.2129V22.7324H253.112C253.153 24.1475 253.987 24.9473 255.204 24.9473C256.031 24.9473 256.571 24.5918 256.817 24.1406H258.294C257.966 25.3438 256.824 26.1504 255.19 26.1504ZM253.119 21.6387H256.954C256.954 20.5107 256.223 19.6768 255.108 19.6836C253.939 19.6768 253.181 20.5928 253.119 21.6387Z" fill="#626262"/>
</svg>
