<svg width="150" height="150" viewBox="0 0 150 150" fill="none" xmlns="http://www.w3.org/2000/svg">
<path fill-rule="evenodd" clip-rule="evenodd" d="M106.895 21.2236C116.293 18.2654 125.677 15.3117 132.716 10.2882C137.379 40.928 126.181 61.3342 94.1247 73.7622C90.7266 67.4379 80.7888 57.8323 77.5491 56.5922C92.3083 75.9595 99.4661 86.8749 99.6736 107.872C98.473 107.454 97.3126 107.043 96.178 106.642C87.5523 103.591 80.4122 101.065 68.398 99.7444C71.4835 90.1424 69.7034 83.0689 62.7572 75.5145C59.0589 74.0753 55.5396 72.7596 52.2002 71.5112C23.514 60.7869 8.09237 55.0216 6.37825 18.5183C7.97809 18.9309 9.59115 19.3414 11.2132 19.7542C32.4201 25.1509 55.172 30.9409 70.1499 47.0341C74.5582 31.4024 90.7474 26.3065 106.895 21.2236ZM6.37268 125.426C19.3781 109.392 34.9477 103.611 52.7865 103.682C73.8456 103.765 98.0671 112.002 124.965 121.15C131.368 123.327 137.923 125.556 144.623 127.739C134.19 126.515 124.389 125.124 114.998 123.792C76.9468 118.393 45.6313 113.95 6.37268 125.426Z" fill="#1E88E5"/>
</svg>
